<mxfile host="app.diagrams.net" agent="Mozilla/5.0 (Windows NT 10.0; Win64; x64) AppleWebKit/537.36 (KHTML, like Gecko) Chrome/122.0.0.0 Safari/537.36" version="27.1.4">
  <diagram name="Página-1" id="Hrszt5Fr_KAt9_tzd4eq">
    <mxGraphModel dx="770" dy="742" grid="1" gridSize="10" guides="1" tooltips="1" connect="1" arrows="1" fold="1" page="1" pageScale="1" pageWidth="827" pageHeight="1169" math="0" shadow="0">
      <root>
        <mxCell id="0" />
        <mxCell id="1" parent="0" />
        <mxCell id="SlWbrO8GuP0TGCZLVEYo-11" value="&lt;font style=&quot;font-size: 30px;&quot;&gt;X&lt;sub&gt;1&lt;/sub&gt;&lt;/font&gt;" style="rounded=0;whiteSpace=wrap;html=1;" parent="1" vertex="1">
          <mxGeometry x="265" y="130" width="70" height="70" as="geometry" />
        </mxCell>
        <mxCell id="SlWbrO8GuP0TGCZLVEYo-13" value="&lt;font style=&quot;font-size: 30px;&quot;&gt;X&lt;sub&gt;2&lt;/sub&gt;&lt;/font&gt;" style="rounded=0;whiteSpace=wrap;html=1;" parent="1" vertex="1">
          <mxGeometry x="265" y="259" width="70" height="70" as="geometry" />
        </mxCell>
        <mxCell id="SlWbrO8GuP0TGCZLVEYo-15" value="&lt;span&gt;OR&lt;/span&gt;" style="ellipse;whiteSpace=wrap;html=1;fontSize=16;" parent="1" vertex="1">
          <mxGeometry x="450" y="150" width="70" height="70" as="geometry" />
        </mxCell>
        <mxCell id="SlWbrO8GuP0TGCZLVEYo-16" value="&lt;span&gt;NAND&lt;/span&gt;" style="ellipse;whiteSpace=wrap;html=1;fontSize=16;" parent="1" vertex="1">
          <mxGeometry x="450" y="250" width="70" height="70" as="geometry" />
        </mxCell>
        <mxCell id="SlWbrO8GuP0TGCZLVEYo-19" value="Camada com Neurônios Ocultos" style="text;html=1;align=center;verticalAlign=middle;whiteSpace=wrap;rounded=0;strokeColor=none;fontSize=20;" parent="1" vertex="1">
          <mxGeometry x="420" y="80" width="130" height="30" as="geometry" />
        </mxCell>
        <mxCell id="SlWbrO8GuP0TGCZLVEYo-23" value="" style="endArrow=classic;html=1;rounded=0;entryX=0.086;entryY=0.3;entryDx=0;entryDy=0;entryPerimeter=0;fillColor=#f8cecc;strokeColor=#FF3333;exitX=0.971;exitY=0.4;exitDx=0;exitDy=0;exitPerimeter=0;" parent="1" source="SlWbrO8GuP0TGCZLVEYo-11" target="SlWbrO8GuP0TGCZLVEYo-15" edge="1">
          <mxGeometry width="50" height="50" relative="1" as="geometry">
            <mxPoint x="335" y="200" as="sourcePoint" />
            <mxPoint x="385" y="150" as="targetPoint" />
          </mxGeometry>
        </mxCell>
        <mxCell id="SlWbrO8GuP0TGCZLVEYo-26" value="" style="endArrow=classic;html=1;rounded=0;entryX=0;entryY=0.286;entryDx=0;entryDy=0;entryPerimeter=0;strokeColor=#006633;exitX=1;exitY=0.5;exitDx=0;exitDy=0;" parent="1" source="SlWbrO8GuP0TGCZLVEYo-11" target="SlWbrO8GuP0TGCZLVEYo-16" edge="1">
          <mxGeometry width="50" height="50" relative="1" as="geometry">
            <mxPoint x="335" y="200" as="sourcePoint" />
            <mxPoint x="385" y="150" as="targetPoint" />
          </mxGeometry>
        </mxCell>
        <mxCell id="SlWbrO8GuP0TGCZLVEYo-27" value="" style="endArrow=classic;html=1;rounded=0;entryX=0;entryY=0.5;entryDx=0;entryDy=0;strokeColor=#006633;" parent="1" target="SlWbrO8GuP0TGCZLVEYo-16" edge="1">
          <mxGeometry width="50" height="50" relative="1" as="geometry">
            <mxPoint x="335" y="300" as="sourcePoint" />
            <mxPoint x="385" y="250" as="targetPoint" />
          </mxGeometry>
        </mxCell>
        <mxCell id="SlWbrO8GuP0TGCZLVEYo-42" value="" style="endArrow=classic;html=1;rounded=0;entryX=0;entryY=0.5;entryDx=0;entryDy=0;fillColor=#f8cecc;strokeColor=#FF3333;" parent="1" target="SlWbrO8GuP0TGCZLVEYo-15" edge="1">
          <mxGeometry width="50" height="50" relative="1" as="geometry">
            <mxPoint x="335" y="300" as="sourcePoint" />
            <mxPoint x="385" y="250" as="targetPoint" />
          </mxGeometry>
        </mxCell>
        <mxCell id="SlWbrO8GuP0TGCZLVEYo-43" value="&lt;span&gt;AND&lt;/span&gt;" style="ellipse;whiteSpace=wrap;html=1;fontSize=16;" parent="1" vertex="1">
          <mxGeometry x="570" y="200" width="70" height="70" as="geometry" />
        </mxCell>
        <mxCell id="SlWbrO8GuP0TGCZLVEYo-46" value="Camada com Neurônios Saída" style="text;html=1;align=center;verticalAlign=middle;whiteSpace=wrap;rounded=0;strokeColor=none;fontSize=20;" parent="1" vertex="1">
          <mxGeometry x="560" y="80" width="130" height="30" as="geometry" />
        </mxCell>
        <mxCell id="SlWbrO8GuP0TGCZLVEYo-47" value="" style="endArrow=classic;html=1;rounded=0;entryX=0;entryY=0.286;entryDx=0;entryDy=0;entryPerimeter=0;fillColor=#6a00ff;strokeColor=#3700CC;" parent="1" target="SlWbrO8GuP0TGCZLVEYo-43" edge="1">
          <mxGeometry width="50" height="50" relative="1" as="geometry">
            <mxPoint x="520" y="190" as="sourcePoint" />
            <mxPoint x="570" y="140" as="targetPoint" />
          </mxGeometry>
        </mxCell>
        <mxCell id="SlWbrO8GuP0TGCZLVEYo-48" value="" style="endArrow=classic;html=1;rounded=0;entryX=0;entryY=0.5;entryDx=0;entryDy=0;fillColor=#6a00ff;strokeColor=#3700CC;" parent="1" target="SlWbrO8GuP0TGCZLVEYo-43" edge="1">
          <mxGeometry width="50" height="50" relative="1" as="geometry">
            <mxPoint x="520" y="280" as="sourcePoint" />
            <mxPoint x="570" y="230" as="targetPoint" />
          </mxGeometry>
        </mxCell>
        <mxCell id="SlWbrO8GuP0TGCZLVEYo-56" value="Camada de Entrada" style="text;html=1;align=center;verticalAlign=middle;whiteSpace=wrap;rounded=0;strokeColor=none;fontSize=20;" parent="1" vertex="1">
          <mxGeometry x="235" y="70" width="130" height="30" as="geometry" />
        </mxCell>
      </root>
    </mxGraphModel>
  </diagram>
</mxfile>
